<?xml version="1.0" encoding="UTF-8"?>
<!--Generator: Apple Native CoreSVG 149-->
<!DOCTYPE svg
PUBLIC "-//W3C//DTD SVG 1.1//EN"
       "http://www.w3.org/Graphics/SVG/1.1/DTD/svg11.dtd">
<svg version="1.1" xmlns="http://www.w3.org/2000/svg" xmlns:xlink="http://www.w3.org/1999/xlink" width="3300" height="2200">
 <!--glyph: "uni1001B9.medium", point size: 100.0, font version: "17.0d9e1", template writer version: "59"-->
 <g id="Notes">
  <rect height="2200" id="artboard" style="fill:white;opacity:1" width="3300" x="0" y="0"/>
  <line style="fill:none;stroke:black;opacity:1;stroke-width:0.5;" x1="263" x2="3036" y1="292" y2="292"/>
  <text style="stroke:none;fill:black;font-family:sans-serif;font-size:13;font-weight:bold;" transform="matrix(1 0 0 1 263 322)">Weight/Scale Variations</text>
  <text style="stroke:none;fill:black;font-family:sans-serif;font-size:13;text-anchor:middle;" transform="matrix(1 0 0 1 559.711 322)">Ultralight</text>
  <text style="stroke:none;fill:black;font-family:sans-serif;font-size:13;text-anchor:middle;" transform="matrix(1 0 0 1 856.422 322)">Thin</text>
  <text style="stroke:none;fill:black;font-family:sans-serif;font-size:13;text-anchor:middle;" transform="matrix(1 0 0 1 1153.13 322)">Light</text>
  <text style="stroke:none;fill:black;font-family:sans-serif;font-size:13;text-anchor:middle;" transform="matrix(1 0 0 1 1449.84 322)">Regular</text>
  <text style="stroke:none;fill:black;font-family:sans-serif;font-size:13;text-anchor:middle;" transform="matrix(1 0 0 1 1746.56 322)">Medium</text>
  <text style="stroke:none;fill:black;font-family:sans-serif;font-size:13;text-anchor:middle;" transform="matrix(1 0 0 1 2043.27 322)">Semibold</text>
  <text style="stroke:none;fill:black;font-family:sans-serif;font-size:13;text-anchor:middle;" transform="matrix(1 0 0 1 2339.98 322)">Bold</text>
  <text style="stroke:none;fill:black;font-family:sans-serif;font-size:13;text-anchor:middle;" transform="matrix(1 0 0 1 2636.69 322)">Heavy</text>
  <text style="stroke:none;fill:black;font-family:sans-serif;font-size:13;text-anchor:middle;" transform="matrix(1 0 0 1 2933.4 322)">Black</text>
  <line style="fill:none;stroke:black;opacity:1;stroke-width:0.5;" x1="263" x2="3036" y1="1903" y2="1903"/>
  <g transform="matrix(1 0 0 1 263 1933)">
   <path d="M9.24805 0.830078Q10.8691 0.830078 12.2949 0.214844Q13.7207-0.400391 14.8096-1.49414Q15.8984-2.58789 16.5186-4.01367Q17.1387-5.43945 17.1387-7.05078Q17.1387-8.66211 16.5186-10.0879Q15.8984-11.5137 14.8047-12.6074Q13.7109-13.7012 12.2852-14.3164Q10.8594-14.9316 9.23828-14.9316Q7.62695-14.9316 6.20117-14.3164Q4.77539-13.7012 3.69141-12.6074Q2.60742-11.5137 1.9873-10.0879Q1.36719-8.66211 1.36719-7.05078Q1.36719-5.43945 1.9873-4.01367Q2.60742-2.58789 3.69629-1.49414Q4.78516-0.400391 6.21094 0.214844Q7.63672 0.830078 9.24805 0.830078ZM9.24805-0.654297Q7.91992-0.654297 6.7627-1.14746Q5.60547-1.64062 4.73145-2.51953Q3.85742-3.39844 3.36426-4.56055Q2.87109-5.72266 2.87109-7.05078Q2.87109-8.37891 3.35938-9.54102Q3.84766-10.7031 4.72168-11.582Q5.5957-12.4609 6.75293-12.9541Q7.91016-13.4473 9.23828-13.4473Q10.5762-13.4473 11.7334-12.9541Q12.8906-12.4609 13.7695-11.582Q14.6484-10.7031 15.1465-9.54102Q15.6445-8.37891 15.6445-7.05078Q15.6445-5.72266 15.1514-4.56055Q14.6582-3.39844 13.7842-2.51953Q12.9102-1.64062 11.748-1.14746Q10.5859-0.654297 9.24805-0.654297ZM5.83984-7.04102Q5.83984-6.71875 6.04492-6.51855Q6.25-6.31836 6.5918-6.31836L8.50586-6.31836L8.50586-4.39453Q8.50586-4.0625 8.70605-3.85742Q8.90625-3.65234 9.22852-3.65234Q9.56055-3.65234 9.76562-3.85742Q9.9707-4.0625 9.9707-4.39453L9.9707-6.31836L11.8945-6.31836Q12.2266-6.31836 12.4316-6.51855Q12.6367-6.71875 12.6367-7.04102Q12.6367-7.37305 12.4316-7.57812Q12.2266-7.7832 11.8945-7.7832L9.9707-7.7832L9.9707-9.69727Q9.9707-10.0391 9.76562-10.2441Q9.56055-10.4492 9.22852-10.4492Q8.90625-10.4492 8.70605-10.2441Q8.50586-10.0391 8.50586-9.69727L8.50586-7.7832L6.5918-7.7832Q6.25-7.7832 6.04492-7.57812Q5.83984-7.37305 5.83984-7.04102Z"/>
  </g>
  <g transform="matrix(1 0 0 1 281.867 1933)">
   <path d="M11.709 2.91016Q13.75 2.91016 15.5518 2.12891Q17.3535 1.34766 18.7305-0.0292969Q20.1074-1.40625 20.8887-3.20801Q21.6699-5.00977 21.6699-7.05078Q21.6699-9.0918 20.8887-10.8936Q20.1074-12.6953 18.7305-14.0723Q17.3535-15.4492 15.5469-16.2305Q13.7402-17.0117 11.6992-17.0117Q9.6582-17.0117 7.85645-16.2305Q6.05469-15.4492 4.68262-14.0723Q3.31055-12.6953 2.5293-10.8936Q1.74805-9.0918 1.74805-7.05078Q1.74805-5.00977 2.5293-3.20801Q3.31055-1.40625 4.6875-0.0292969Q6.06445 1.34766 7.86621 2.12891Q9.66797 2.91016 11.709 2.91016ZM11.709 1.25Q9.98047 1.25 8.47656 0.605469Q6.97266-0.0390625 5.83496-1.17676Q4.69727-2.31445 4.05762-3.81836Q3.41797-5.32227 3.41797-7.05078Q3.41797-8.7793 4.05762-10.2832Q4.69727-11.7871 5.83008-12.9297Q6.96289-14.0723 8.4668-14.7119Q9.9707-15.3516 11.6992-15.3516Q13.4277-15.3516 14.9316-14.7119Q16.4355-14.0723 17.5781-12.9297Q18.7207-11.7871 19.3652-10.2832Q20.0098-8.7793 20.0098-7.05078Q20.0098-5.32227 19.3701-3.81836Q18.7305-2.31445 17.5928-1.17676Q16.4551-0.0390625 14.9463 0.605469Q13.4375 1.25 11.709 1.25ZM7.39258-7.04102Q7.39258-6.68945 7.62695-6.46484Q7.86133-6.24023 8.23242-6.24023L10.8789-6.24023L10.8789-3.57422Q10.8789-3.21289 11.1035-2.9834Q11.3281-2.75391 11.6797-2.75391Q12.0508-2.75391 12.2852-2.9834Q12.5195-3.21289 12.5195-3.57422L12.5195-6.24023L15.1758-6.24023Q15.5371-6.24023 15.7715-6.46484Q16.0059-6.68945 16.0059-7.04102Q16.0059-7.41211 15.7715-7.6416Q15.5371-7.87109 15.1758-7.87109L12.5195-7.87109L12.5195-10.5176Q12.5195-10.8984 12.2852-11.1279Q12.0508-11.3574 11.6797-11.3574Q11.3281-11.3574 11.1035-11.1279Q10.8789-10.8984 10.8789-10.5176L10.8789-7.87109L8.23242-7.87109Q7.85156-7.87109 7.62207-7.6416Q7.39258-7.41211 7.39258-7.04102Z"/>
  </g>
  <g transform="matrix(1 0 0 1 305.646 1933)">
   <path d="M14.9707 5.66406Q17.0605 5.66406 18.96 5.01465Q20.8594 4.36523 22.4512 3.19336Q24.043 2.02148 25.2197 0.429688Q26.3965-1.16211 27.0459-3.06641Q27.6953-4.9707 27.6953-7.05078Q27.6953-9.14062 27.0459-11.04Q26.3965-12.9395 25.2197-14.5312Q24.043-16.123 22.4512-17.2998Q20.8594-18.4766 18.9551-19.126Q17.0508-19.7754 14.9609-19.7754Q12.8711-19.7754 10.9717-19.126Q9.07227-18.4766 7.48535-17.2998Q5.89844-16.123 4.72168-14.5312Q3.54492-12.9395 2.90039-11.04Q2.25586-9.14062 2.25586-7.05078Q2.25586-4.9707 2.90527-3.06641Q3.55469-1.16211 4.72656 0.429688Q5.89844 2.02148 7.49023 3.19336Q9.08203 4.36523 10.9814 5.01465Q12.8809 5.66406 14.9707 5.66406ZM14.9707 3.84766Q13.1641 3.84766 11.5283 3.2959Q9.89258 2.74414 8.53516 1.74805Q7.17773 0.751953 6.17676-0.610352Q5.17578-1.97266 4.62891-3.6084Q4.08203-5.24414 4.08203-7.05078Q4.08203-8.86719 4.62891-10.5029Q5.17578-12.1387 6.17188-13.501Q7.16797-14.8633 8.52539-15.8594Q9.88281-16.8555 11.5186-17.4023Q13.1543-17.9492 14.9609-17.9492Q16.7773-17.9492 18.4131-17.4023Q20.0488-16.8555 21.4111-15.8594Q22.7734-14.8633 23.7695-13.501Q24.7656-12.1387 25.3174-10.5029Q25.8691-8.86719 25.8691-7.05078Q25.8789-5.24414 25.332-3.6084Q24.7852-1.97266 23.7842-0.610352Q22.7832 0.751953 21.4209 1.74805Q20.0586 2.74414 18.4229 3.2959Q16.7871 3.84766 14.9707 3.84766ZM9.45312-7.04102Q9.45312-6.66016 9.71191-6.41113Q9.9707-6.16211 10.3711-6.16211L14.0625-6.16211L14.0625-2.46094Q14.0625-2.06055 14.3115-1.80664Q14.5605-1.55273 14.9414-1.55273Q15.3516-1.55273 15.6055-1.80664Q15.8594-2.06055 15.8594-2.46094L15.8594-6.16211L19.5605-6.16211Q19.9609-6.16211 20.2148-6.41113Q20.4688-6.66016 20.4688-7.04102Q20.4688-7.45117 20.2148-7.70508Q19.9609-7.95898 19.5605-7.95898L15.8594-7.95898L15.8594-11.6504Q15.8594-12.0605 15.6055-12.3145Q15.3516-12.5684 14.9414-12.5684Q14.5605-12.5684 14.3115-12.3096Q14.0625-12.0508 14.0625-11.6504L14.0625-7.95898L10.3711-7.95898Q9.96094-7.95898 9.70703-7.70508Q9.45312-7.45117 9.45312-7.04102Z"/>
  </g>
  <text style="stroke:none;fill:black;font-family:sans-serif;font-size:13;font-weight:bold;" transform="matrix(1 0 0 1 263 1953)">Design Variations</text>
  <text style="stroke:none;fill:black;font-family:sans-serif;font-size:13;" transform="matrix(1 0 0 1 263 1971)">Symbols are supported in up to nine weights and three scales.</text>
  <text style="stroke:none;fill:black;font-family:sans-serif;font-size:13;" transform="matrix(1 0 0 1 263 1989)">For optimal layout with text and other symbols, vertically align</text>
  <text style="stroke:none;fill:black;font-family:sans-serif;font-size:13;" transform="matrix(1 0 0 1 263 2007)">symbols with the adjacent text.</text>
  <line style="fill:none;stroke:#00AEEF;stroke-width:0.5;opacity:1.0;" x1="776" x2="776" y1="1919" y2="1933"/>
  <g transform="matrix(1 0 0 1 776 1933)">
   <path d="M3.31055 0.15625Q3.70117 0.15625 3.91602-0.00976562Q4.13086-0.175781 4.26758-0.585938L5.52734-4.0332L11.2891-4.0332L12.5488-0.585938Q12.6855-0.175781 12.9004-0.00976562Q13.1152 0.15625 13.4961 0.15625Q13.8867 0.15625 14.1162-0.0585938Q14.3457-0.273438 14.3457-0.644531Q14.3457-0.869141 14.2383-1.17188L9.6582-13.3691Q9.48242-13.8184 9.17969-14.043Q8.87695-14.2676 8.4082-14.2676Q7.5-14.2676 7.17773-13.3789L2.59766-1.16211Q2.49023-0.859375 2.49023-0.634766Q2.49023-0.263672 2.70996-0.0537109Q2.92969 0.15625 3.31055 0.15625ZM6.00586-5.51758L8.37891-12.0898L8.42773-12.0898L10.8008-5.51758Z"/>
  </g>
  <line style="fill:none;stroke:#00AEEF;stroke-width:0.5;opacity:1.0;" x1="793.197" x2="793.197" y1="1919" y2="1933"/>
  <text style="stroke:none;fill:black;font-family:sans-serif;font-size:13;font-weight:bold;" transform="matrix(1 0 0 1 776 1953)">Margins</text>
  <text style="stroke:none;fill:black;font-family:sans-serif;font-size:13;" transform="matrix(1 0 0 1 776 1971)">Leading and trailing margins on the left and right side of each symbol</text>
  <text style="stroke:none;fill:black;font-family:sans-serif;font-size:13;" transform="matrix(1 0 0 1 776 1989)">can be adjusted by modifying the x-location of the margin guidelines.</text>
  <text style="stroke:none;fill:black;font-family:sans-serif;font-size:13;" transform="matrix(1 0 0 1 776 2007)">Modifications are automatically applied proportionally to all</text>
  <text style="stroke:none;fill:black;font-family:sans-serif;font-size:13;" transform="matrix(1 0 0 1 776 2025)">scales and weights.</text>
  <g transform="matrix(1 0 0 1 1289 1933)">
   <path d="M2.8418 1.86523L4.54102 3.57422Q5.18555 4.22852 5.90332 4.17969Q6.62109 4.13086 7.31445 3.35938L18.0078-8.42773L17.041-9.4043L6.42578 2.27539Q6.16211 2.57812 5.89355 2.61719Q5.625 2.65625 5.27344 2.30469L4.10156 1.14258Q3.75 0.791016 3.79395 0.522461Q3.83789 0.253906 4.14062-0.0195312L15.6152-10.8203L14.6387-11.7871L3.04688-0.898438Q2.30469-0.214844 2.25098 0.498047Q2.19727 1.21094 2.8418 1.86523ZM9.25781-16.3281Q8.94531-16.0254 8.90625-15.6348Q8.86719-15.2441 9.04297-14.9512Q9.21875-14.6777 9.55566-14.541Q9.89258-14.4043 10.3809-14.5215Q11.4746-14.7754 12.5977-14.7314Q13.7207-14.6875 14.7949-13.9844L14.209-12.5293Q13.9551-11.9043 14.0674-11.4404Q14.1797-10.9766 14.5801-10.5664L16.875-8.25195Q17.2363-7.88086 17.5781-7.82227Q17.9199-7.76367 18.3398-7.8418L19.4043-8.03711L20.0684-7.36328L20.0293-6.80664Q20-6.43555 20.1221-6.12305Q20.2441-5.81055 20.6055-5.44922L21.3672-4.70703Q21.7285-4.3457 22.1533-4.33105Q22.5781-4.31641 22.9297-4.66797L25.8398-7.58789Q26.1914-7.93945 26.1816-8.35449Q26.1719-8.76953 25.8105-9.13086L25.0391-9.89258Q24.6875-10.2539 24.3799-10.3857Q24.0723-10.5176 23.7109-10.4883L23.1348-10.4395L22.4902-11.0742L22.7344-12.1973Q22.832-12.6172 22.6953-12.9834Q22.5586-13.3496 22.1191-13.7891L19.9219-15.9766Q18.6719-17.2168 17.2607-17.8369Q15.8496-18.457 14.4189-18.4814Q12.9883-18.5059 11.665-17.959Q10.3418-17.4121 9.25781-16.3281ZM10.752-15.957Q11.6602-16.6211 12.7002-16.9043Q13.7402-17.1875 14.8047-17.085Q15.8691-16.9824 16.8701-16.5137Q17.8711-16.0449 18.7012-15.2051L21.1328-12.793Q21.3086-12.6172 21.3525-12.4512Q21.3965-12.2852 21.3379-12.0312L21.0156-10.5469L22.5195-9.0625L23.5059-9.12109Q23.6914-9.13086 23.7891-9.09668Q23.8867-9.0625 24.0332-8.91602L24.6094-8.33984L22.168-5.89844L21.5918-6.47461Q21.4453-6.62109 21.4062-6.71875Q21.3672-6.81641 21.377-7.01172L21.4453-7.98828L19.9512-9.47266L18.4277-9.21875Q18.1836-9.16992 18.042-9.2041Q17.9004-9.23828 17.7148-9.41406L15.7129-11.416Q15.5176-11.5918 15.4932-11.7529Q15.4688-11.9141 15.5859-12.1875L16.4648-14.2773Q15.293-15.3711 13.8281-15.791Q12.3633-16.2109 10.8398-15.7617Q10.7227-15.7324 10.6885-15.8057Q10.6543-15.8789 10.752-15.957Z"/>
  </g>
  <text style="stroke:none;fill:black;font-family:sans-serif;font-size:13;font-weight:bold;" transform="matrix(1 0 0 1 1289 1953)">Exporting</text>
  <text style="stroke:none;fill:black;font-family:sans-serif;font-size:13;" transform="matrix(1 0 0 1 1289 1971)">Symbols should be outlined when exporting to ensure the</text>
  <text style="stroke:none;fill:black;font-family:sans-serif;font-size:13;" transform="matrix(1 0 0 1 1289 1989)">design is preserved when submitting to Xcode.</text>
  <text id="template-version" style="stroke:none;fill:black;font-family:sans-serif;font-size:13;text-anchor:end;" transform="matrix(1 0 0 1 3036 1933)">Template v.3.0</text>
  <text style="stroke:none;fill:black;font-family:sans-serif;font-size:13;text-anchor:end;" transform="matrix(1 0 0 1 3036 1951)">Requires Xcode 13 or greater</text>
  <text id="descriptive-name" style="stroke:none;fill:black;font-family:sans-serif;font-size:13;text-anchor:end;" transform="matrix(1 0 0 1 3036 1969)">Generated from moon</text>
  <text style="stroke:none;fill:black;font-family:sans-serif;font-size:13;text-anchor:end;" transform="matrix(1 0 0 1 3036 1987)">Typeset at 100 points</text>
  <text style="stroke:none;fill:black;font-family:sans-serif;font-size:13;" transform="matrix(1 0 0 1 263 726)">Small</text>
  <text style="stroke:none;fill:black;font-family:sans-serif;font-size:13;" transform="matrix(1 0 0 1 263 1156)">Medium</text>
  <text style="stroke:none;fill:black;font-family:sans-serif;font-size:13;" transform="matrix(1 0 0 1 263 1586)">Large</text>
 </g>
 <g id="Guides">
  <g id="H-reference" style="fill:#27AAE1;stroke:none;" transform="matrix(1 0 0 1 339 696)">
   <path d="M0.976562 0L3.66211 0L29.3457-67.1387L30.0293-67.1387L30.0293-70.459L28.125-70.459ZM11.6699-24.4629L46.9727-24.4629L46.2402-26.709L12.4512-26.709ZM55.127 0L57.7637 0L30.6152-70.459L29.4434-70.459L29.4434-67.1387Z"/>
  </g>
  <line id="Baseline-S" style="fill:none;stroke:#27AAE1;opacity:1;stroke-width:0.5;" x1="263" x2="3036" y1="696" y2="696"/>
  <line id="Capline-S" style="fill:none;stroke:#27AAE1;opacity:1;stroke-width:0.5;" x1="263" x2="3036" y1="625.541" y2="625.541"/>
  <g id="H-reference" style="fill:#27AAE1;stroke:none;" transform="matrix(1 0 0 1 339 1126)">
   <path d="M0.976562 0L3.66211 0L29.3457-67.1387L30.0293-67.1387L30.0293-70.459L28.125-70.459ZM11.6699-24.4629L46.9727-24.4629L46.2402-26.709L12.4512-26.709ZM55.127 0L57.7637 0L30.6152-70.459L29.4434-70.459L29.4434-67.1387Z"/>
  </g>
  <line id="Baseline-M" style="fill:none;stroke:#27AAE1;opacity:1;stroke-width:0.5;" x1="263" x2="3036" y1="1126" y2="1126"/>
  <line id="Capline-M" style="fill:none;stroke:#27AAE1;opacity:1;stroke-width:0.5;" x1="263" x2="3036" y1="1055.54" y2="1055.54"/>
  <g id="H-reference" style="fill:#27AAE1;stroke:none;" transform="matrix(1 0 0 1 339 1556)">
   <path d="M0.976562 0L3.66211 0L29.3457-67.1387L30.0293-67.1387L30.0293-70.459L28.125-70.459ZM11.6699-24.4629L46.9727-24.4629L46.2402-26.709L12.4512-26.709ZM55.127 0L57.7637 0L30.6152-70.459L29.4434-70.459L29.4434-67.1387Z"/>
  </g>
  <line id="Baseline-L" style="fill:none;stroke:#27AAE1;opacity:1;stroke-width:0.5;" x1="263" x2="3036" y1="1556" y2="1556"/>
  <line id="Capline-L" style="fill:none;stroke:#27AAE1;opacity:1;stroke-width:0.5;" x1="263" x2="3036" y1="1485.54" y2="1485.54"/>
  <line id="left-margin-Regular-M" style="fill:none;stroke:#00AEEF;stroke-width:0.5;opacity:1.0;" x1="1391.98" x2="1391.98" y1="1030.79" y2="1150.12"/>
  <line id="right-margin-Regular-M" style="fill:none;stroke:#00AEEF;stroke-width:0.5;opacity:1.0;" x1="1507.71" x2="1507.71" y1="1030.79" y2="1150.12"/>
 </g>
 <g id="Symbols">
  <g id="Black-L" transform="matrix(1 0 0 1 2856.91 1556)">
   <path d="M109.229-20.3613Q94.7266-20.3613 84.1553-25.8789Q73.584-31.3965 67.8223-41.5771Q62.0605-51.7578 62.0605-65.8691Q62.0605-71.7285 62.9883-77.002Q63.916-82.2754 65.625-85.3516Q66.7969-87.4512 67.334-89.3066Q67.8711-91.1621 67.8711-92.9199Q67.8711-96.4355 65.5762-98.8525Q63.2812-101.27 59.375-101.27Q58.1055-101.27 56.4697-100.903Q54.834-100.537 52.832-99.7559Q43.5059-95.9961 35.8643-89.6484Q28.2227-83.3008 22.7295-75.0488Q17.2363-66.7969 14.2578-57.251Q11.2793-47.7051 11.2793-37.5Q11.2793-22.9492 16.2598-10.6934Q21.2402 1.5625 30.2979 10.6445Q39.3555 19.7266 51.6113 24.7314Q63.8672 29.7363 78.418 29.7363Q88.623 29.7363 97.9736 26.9531Q107.324 24.1699 115.332 18.9697Q123.34 13.7695 129.614 6.44531Q135.889-0.878906 139.893-10.0098Q140.869-12.207 141.284-14.0869Q141.699-15.9668 141.699-17.4316Q141.699-21.1426 139.526-23.291Q137.354-25.4395 133.984-25.4395Q132.227-25.4395 130.322-24.9512Q128.418-24.4629 126.172-23.3398Q124.17-22.4121 121.46-21.7529Q118.75-21.0938 115.601-20.7275Q112.451-20.3613 109.229-20.3613ZM31.3965-37.6953Q31.3965-42.1875 32.2754-46.7285Q33.1543-51.2695 34.8633-55.5908Q36.5723-59.9121 39.0869-63.8184Q41.6016-67.7246 44.873-70.8984Q44.4336-68.8965 44.1895-66.8213Q43.9453-64.7461 43.9453-62.5Q43.9453-48.6328 48.1689-37.5732Q52.3926-26.5137 60.3516-18.6768Q68.3105-10.8398 79.5898-6.71387Q90.8691-2.58789 105.078-2.58789Q106.543-2.58789 107.861-2.73438Q109.18-2.88086 110.449-3.27148Q106.543 0.878906 101.44 3.75977Q96.3379 6.64062 90.5029 8.10547Q84.668 9.57031 78.6133 9.57031Q68.4082 9.57031 59.79 6.05469Q51.1719 2.53906 44.7998-3.83301Q38.4277-10.2051 34.9121-18.8232Q31.3965-27.4414 31.3965-37.6953Z"/>
  </g>
  <g id="Heavy-L" transform="matrix(1 0 0 1 2560.79 1556)">
   <path d="M109.326-18.6035Q94.0918-18.6035 83.0078-24.3896Q71.9238-30.1758 65.8691-40.8936Q59.8145-51.6113 59.8145-66.4062Q59.8145-72.5586 60.791-78.0029Q61.7676-83.4473 63.4766-86.6699Q64.5508-88.5742 64.9902-90.1611Q65.4297-91.748 65.4297-93.3105Q65.4297-96.2891 63.4277-98.4375Q61.4258-100.586 58.0078-100.586Q56.9824-100.586 55.5176-100.269Q54.0527-99.9512 52.2461-99.2676Q43.1152-95.5566 35.5713-89.2822Q28.0273-83.0078 22.6074-74.8291Q17.1875-66.6504 14.2334-57.1777Q11.2793-47.7051 11.2793-37.5977Q11.2793-23.0957 16.2354-10.9131Q21.1914 1.26953 30.1758 10.2783Q39.1602 19.2871 51.3428 24.2676Q63.5254 29.248 78.0273 29.248Q88.1836 29.248 97.4609 26.5137Q106.738 23.7793 114.673 18.6523Q122.607 13.5254 128.809 6.29883Q135.01-0.927734 138.965-9.96094Q139.795-11.8652 140.161-13.501Q140.527-15.1367 140.527-16.4062Q140.527-19.6289 138.599-21.5088Q136.67-23.3887 133.789-23.3887Q132.275-23.3887 130.664-22.998Q129.053-22.6074 127.1-21.6797Q125-20.752 122.144-20.0684Q119.287-19.3848 115.991-18.9941Q112.695-18.6035 109.326-18.6035ZM28.6621-37.793Q28.6621-43.0176 29.7852-48.2178Q30.9082-53.418 33.0811-58.252Q35.2539-63.0859 38.4033-67.3584Q41.5527-71.6309 45.5566-74.9023Q44.873-72.3145 44.4824-69.5068Q44.0918-66.6992 44.0918-63.6719Q44.0918-49.6094 48.3398-38.4277Q52.5879-27.2461 60.6445-19.3604Q68.7012-11.4746 80.1025-7.32422Q91.5039-3.17383 105.908-3.17383Q108.203-3.17383 110.254-3.41797Q112.305-3.66211 114.209-4.29688Q110.059 0.830078 104.37 4.46777Q98.6816 8.10547 91.9922 9.98535Q85.3027 11.8652 78.2227 11.8652Q67.5293 11.8652 58.4717 8.17871Q49.4141 4.49219 42.7246-2.22168Q36.0352-8.93555 32.3486-17.9932Q28.6621-27.0508 28.6621-37.793Z"/>
  </g>
  <g id="Bold-L" transform="matrix(1 0 0 1 2264.73 1556)">
   <path d="M109.473-16.6504Q93.4082-16.6504 81.7139-22.7539Q70.0195-28.8574 63.6719-40.1611Q57.3242-51.4648 57.3242-67.041Q57.3242-73.5352 58.3252-79.1504Q59.3262-84.7656 61.1328-88.1836Q62.0117-89.8438 62.3779-91.1377Q62.7441-92.4316 62.7441-93.75Q62.7441-96.1914 61.0352-98.0225Q59.3262-99.8535 56.4941-99.8535Q55.7129-99.8535 54.4678-99.585Q53.2227-99.3164 51.6602-98.7305Q42.6758-95.1172 35.2783-88.916Q27.8809-82.7148 22.5098-74.6094Q17.1387-66.5039 14.209-57.1045Q11.2793-47.7051 11.2793-37.6953Q11.2793-23.291 16.2109-11.1816Q21.1426 0.927734 30.0537 9.8877Q38.9648 18.8477 51.0742 23.7793Q63.1836 28.7109 77.5879 28.7109Q87.6953 28.7109 96.9238 26.0254Q106.152 23.3398 113.989 18.2861Q121.826 13.2324 127.93 6.10352Q134.033-1.02539 137.939-9.91211Q138.623-11.5234 138.916-12.8906Q139.209-14.2578 139.209-15.2344Q139.209-17.9688 137.549-19.5557Q135.889-21.1426 133.545-21.1426Q132.324-21.1426 131.055-20.8496Q129.785-20.5566 128.174-19.8242Q125.977-18.8477 122.949-18.1396Q119.922-17.4316 116.455-17.041Q112.988-16.6504 109.473-16.6504ZM25.5859-37.9395Q25.5859-43.9941 27.002-49.9268Q28.418-55.8594 31.1035-61.2793Q33.7891-66.6992 37.6465-71.3379Q41.5039-75.9766 46.3867-79.4434Q45.3613-76.1719 44.7998-72.5342Q44.2383-68.8965 44.2383-65.0391Q44.2383-50.7324 48.5352-39.4287Q52.832-28.125 60.9619-20.1416Q69.0918-12.1582 80.6641-7.9834Q92.2363-3.80859 106.836-3.80859Q110.059-3.80859 112.939-4.19922Q115.82-4.58984 118.408-5.46875Q114.014 0.78125 107.666 5.24902Q101.318 9.7168 93.6768 12.0605Q86.0352 14.4043 77.832 14.4043Q66.5039 14.4043 56.9824 10.5225Q47.4609 6.64062 40.4053-0.415039Q33.3496-7.4707 29.4678-17.041Q25.5859-26.6113 25.5859-37.9395Z"/>
  </g>
  <g id="Semibold-L" transform="matrix(1 0 0 1 1968.49 1556)">
   <path d="M109.57-15.2832Q92.9199-15.2832 80.8105-21.6064Q68.7012-27.9297 62.1582-39.624Q55.6152-51.3184 55.6152-67.4805Q55.6152-74.1699 56.6406-79.9316Q57.666-85.6934 59.4727-89.1602Q60.2539-90.6738 60.5469-91.7725Q60.8398-92.8711 60.8398-94.043Q60.8398-96.0449 59.3506-97.6807Q57.8613-99.3164 55.4688-99.3164Q54.7852-99.3164 53.7109-99.0967Q52.6367-98.877 51.2207-98.3398Q42.3828-94.7754 35.0586-88.623Q27.7344-82.4707 22.4121-74.4141Q17.0898-66.3574 14.1846-57.0068Q11.2793-47.6562 11.2793-37.7441Q11.2793-23.4375 16.1865-11.377Q21.0938 0.683594 29.9561 9.59473Q38.8184 18.5059 50.8789 23.4131Q62.9395 28.3203 77.2461 28.3203Q87.3535 28.3203 96.5332 25.6592Q105.713 22.998 113.501 18.0176Q121.289 13.0371 127.295 6.00586Q133.301-1.02539 137.207-9.86328Q137.793-11.2793 138.037-12.4512Q138.281-13.623 138.281-14.4043Q138.281-16.7969 136.792-18.1885Q135.303-19.5801 133.35-19.5801Q132.324-19.5801 131.299-19.3359Q130.273-19.0918 128.906-18.5059Q126.611-17.5293 123.486-16.8213Q120.361-16.1133 116.748-15.6982Q113.135-15.2832 109.57-15.2832ZM23.4375-38.0371Q23.4375-44.6289 25.0732-51.0742Q26.709-57.5195 29.7363-63.3301Q32.7637-69.1406 37.1094-74.0479Q41.4551-78.9551 46.9238-82.5195Q45.6543-78.8086 44.9951-74.6094Q44.3359-70.4102 44.3359-65.918Q44.3359-51.5137 48.6572-40.0879Q52.9785-28.6621 61.1816-20.6543Q69.3848-12.6465 81.0547-8.42285Q92.7246-4.19922 107.471-4.19922Q111.328-4.19922 114.795-4.6875Q118.262-5.17578 121.289-6.25Q116.748 0.732422 109.912 5.76172Q103.076 10.791 94.7998 13.4766Q86.5234 16.1621 77.5391 16.1621Q65.8203 16.1621 55.957 12.1582Q46.0938 8.1543 38.7695 0.830078Q31.4453-6.49414 27.4414-16.3818Q23.4375-26.2695 23.4375-38.0371Z"/>
  </g>
  <g id="Medium-L" transform="matrix(1 0 0 1 1672.12 1556)">
   <path d="M109.619-14.2578Q92.5781-14.2578 80.1514-20.752Q67.7246-27.2461 61.0107-39.2334Q54.2969-51.2207 54.2969-67.7734Q54.2969-74.707 55.3467-80.542Q56.3965-86.377 58.2031-89.9414Q58.8867-91.3574 59.1553-92.3096Q59.4238-93.2617 59.4238-94.2383Q59.4238-95.9961 58.0811-97.4609Q56.7383-98.9258 54.6387-98.9258Q54.1504-98.9258 53.1738-98.7305Q52.1973-98.5352 50.8789-98.0469Q42.1387-94.5312 34.8877-88.4033Q27.6367-82.2754 22.3389-74.2676Q17.041-66.2598 14.1602-56.958Q11.2793-47.6562 11.2793-37.793Q11.2793-23.4863 16.1621-11.4746Q21.0449 0.537109 29.8828 9.39941Q38.7207 18.2617 50.7324 23.1689Q62.7441 28.0762 77.002 28.0762Q87.1094 28.0762 96.2402 25.415Q105.371 22.7539 113.11 17.8223Q120.85 12.8906 126.831 5.9082Q132.812-1.07422 136.67-9.81445Q137.207-11.084 137.402-12.1338Q137.598-13.1836 137.598-13.7695Q137.598-15.918 136.255-17.1631Q134.912-18.4082 133.203-18.4082Q132.324-18.4082 131.494-18.2129Q130.664-18.0176 129.443-17.5293Q127.148-16.5527 123.901-15.8203Q120.654-15.0879 116.968-14.6729Q113.281-14.2578 109.619-14.2578ZM21.8262-38.0859Q21.8262-45.166 23.6084-51.9531Q25.3906-58.7402 28.7109-64.8682Q32.0312-70.9961 36.7432-76.0986Q41.4551-81.2012 47.3145-84.8633Q45.8984-80.8105 45.166-76.1719Q44.4336-71.5332 44.4336-66.6016Q44.4336-52.0996 48.7793-40.6006Q53.125-29.1016 61.3525-21.0449Q69.5801-12.9883 81.3477-8.76465Q93.1152-4.54102 107.959-4.54102Q112.305-4.54102 116.187-5.10254Q120.068-5.66406 123.486-6.83594Q118.799 0.732422 111.621 6.20117Q104.443 11.6699 95.6787 14.5752Q86.9141 17.4805 77.3438 17.4805Q65.2832 17.4805 55.1758 13.3789Q45.0684 9.27734 37.5732 1.78223Q30.0781-5.71289 25.9521-15.8691Q21.8262-26.0254 21.8262-38.0859Z"/>
  </g>
  <g id="Regular-L" transform="matrix(1 0 0 1 1375.87 1556)">
   <path d="M109.717-12.8906Q92.0898-12.8906 79.2725-19.6045Q66.4551-26.3184 59.5215-38.7207Q52.5879-51.123 52.5879-68.2129Q52.5879-75.3418 53.6621-81.2988Q54.7363-87.2559 56.5918-90.9668Q57.1777-92.1875 57.373-92.9443Q57.5684-93.7012 57.5684-94.5312Q57.5684-95.8984 56.4453-97.1436Q55.3223-98.3887 53.6133-98.3887Q53.2715-98.3887 52.4414-98.2422Q51.6113-98.0957 50.4395-97.6562Q41.8457-94.1895 34.668-88.1348Q27.4902-82.0801 22.2412-74.1211Q16.9922-66.1621 14.1357-56.9092Q11.2793-47.6562 11.2793-37.8418Q11.2793-23.6328 16.1377-11.6699Q20.9961 0.292969 29.7852 9.10645Q38.5742 17.9199 50.5371 22.8027Q62.5 27.6855 76.709 27.6855Q86.7676 27.6855 95.8496 25.0732Q104.932 22.4609 112.622 17.5781Q120.312 12.6953 126.221 5.78613Q132.129-1.12305 135.938-9.76562Q136.377-10.8398 136.523-11.6943Q136.67-12.5488 136.67-12.9883Q136.67-14.7461 135.522-15.7959Q134.375-16.8457 133.057-16.8457Q132.373-16.8457 131.763-16.7236Q131.152-16.6016 130.176-16.2598Q127.783-15.2832 124.438-14.5264Q121.094-13.7695 117.285-13.3301Q113.477-12.8906 109.717-12.8906ZM19.7266-38.1836Q19.7266-45.8008 21.7041-53.1006Q23.6816-60.4004 27.3438-66.9189Q31.0059-73.4375 36.2061-78.8086Q41.4062-84.1797 47.8516-87.9395Q46.2402-83.3984 45.3857-78.2227Q44.5312-73.0469 44.5312-67.5293Q44.5312-52.832 48.9014-41.2598Q53.2715-29.6875 61.5723-21.582Q69.873-13.4766 81.7383-9.22852Q93.6035-4.98047 108.594-4.98047Q113.574-4.98047 118.018-5.61523Q122.461-6.25 126.367-7.61719Q121.484 0.683594 113.867 6.71387Q106.25 12.7441 96.8262 15.9912Q87.4023 19.2383 77.0508 19.2383Q64.5996 19.2383 54.1504 14.9902Q43.7012 10.7422 35.9619 3.00293Q28.2227-4.73633 23.9746-15.2344Q19.7266-25.7324 19.7266-38.1836Z"/>
  </g>
  <g id="Light-L" transform="matrix(1 0 0 1 1080.09 1556)">
   <path d="M108.984-12.0117Q90.9668-12.0117 77.9053-18.8477Q64.8438-25.6836 57.7637-38.3545Q50.6836-51.0254 50.6836-68.457Q50.6836-75.5371 51.7578-81.4697Q52.832-87.4023 54.7852-91.5039Q55.2246-92.5293 55.3955-93.1885Q55.5664-93.8477 55.5664-94.4824Q55.5664-95.6055 54.6875-96.5576Q53.8086-97.5098 52.4902-97.5098Q52.1484-97.5098 51.4404-97.3633Q50.7324-97.2168 49.7559-96.875Q41.3086-93.5059 34.2529-87.5732Q27.1973-81.6406 22.0459-73.7793Q16.8945-65.918 14.0869-56.8115Q11.2793-47.7051 11.2793-38.0371Q11.2793-23.9746 16.0889-12.1582Q20.8984-0.341797 29.5654 8.34961Q38.2324 17.041 50.0488 21.875Q61.8652 26.709 75.9277 26.709Q85.6445 26.709 94.5801 24.0967Q103.516 21.4844 111.157 16.6748Q118.799 11.8652 124.658 5.07812Q130.518-1.70898 134.277-10.1074Q134.57-10.9375 134.692-11.5967Q134.814-12.2559 134.814-12.6465Q134.814-14.0625 133.936-14.917Q133.057-15.7715 131.885-15.7715Q131.348-15.7715 130.835-15.6738Q130.322-15.5762 129.59-15.2832Q127.393-14.3555 123.999-13.623Q120.605-12.8906 116.675-12.4512Q112.744-12.0117 108.984-12.0117ZM17.7734-38.2324Q17.7734-46.2891 19.9219-53.9307Q22.0703-61.5723 26.0254-68.335Q29.9805-75.0977 35.5713-80.5664Q41.1621-86.0352 48.0469-89.6484Q46.3379-84.9121 45.3857-79.3213Q44.4336-73.7305 44.4336-68.0176Q44.4336-53.4668 48.8037-41.9678Q53.1738-30.4688 61.4746-22.4121Q69.7754-14.3555 81.5918-10.1074Q93.4082-5.85938 108.252-5.85938Q113.428-5.85938 118.188-6.54297Q122.949-7.22656 126.904-8.59375Q121.875 0.292969 114.038 6.7627Q106.201 13.2324 96.5088 16.7236Q86.8164 20.2148 76.123 20.2148Q63.4766 20.2148 52.832 15.8691Q42.1875 11.5234 34.3018 3.66211Q26.416-4.19922 22.0947-14.8926Q17.7734-25.5859 17.7734-38.2324Z"/>
  </g>
  <g id="Thin-L" transform="matrix(1 0 0 1 784.596 1556)">
   <path d="M107.959-10.8887Q89.502-10.8887 76.0986-17.8711Q62.6953-24.8535 55.4443-37.8418Q48.1934-50.8301 48.1934-68.75Q48.1934-75.8301 49.2432-81.6895Q50.293-87.5488 52.3926-92.2852Q52.6367-93.0176 52.7832-93.5059Q52.9297-93.9941 52.9297-94.3848Q52.9297-95.2148 52.3926-95.7764Q51.8555-96.3379 51.0254-96.3379Q50.6348-96.3379 50.0977-96.1914Q49.5605-96.0449 48.877-95.8496Q40.625-92.627 33.7402-86.8164Q26.8555-81.0059 21.8262-73.3154Q16.7969-65.625 14.0381-56.6895Q11.2793-47.7539 11.2793-38.2812Q11.2793-24.4629 15.9912-12.8418Q20.7031-1.2207 29.2725 7.34863Q37.8418 15.918 49.4385 20.6543Q61.0352 25.3906 74.8535 25.3906Q84.1797 25.3906 92.9199 22.8271Q101.66 20.2637 109.204 15.5029Q116.748 10.7422 122.583 4.15039Q128.418-2.44141 132.031-10.5469Q132.227-11.0352 132.3-11.4746Q132.373-11.9141 132.373-12.207Q132.373-13.1836 131.836-13.7695Q131.299-14.3555 130.371-14.3555Q130.029-14.3555 129.639-14.2578Q129.248-14.1602 128.809-13.9648Q126.904-13.1348 123.438-12.4268Q119.971-11.7188 115.869-11.3037Q111.768-10.8887 107.959-10.8887ZM15.1855-38.3301Q15.1855-46.875 17.5537-54.9805Q19.9219-63.0859 24.292-70.166Q28.6621-77.2461 34.7412-82.8369Q40.8203-88.4277 48.291-91.8945Q46.4355-86.8652 45.3857-80.7373Q44.3359-74.6094 44.3359-68.6523Q44.3359-54.2969 48.7061-42.9199Q53.0762-31.543 61.3525-23.5352Q69.6289-15.5273 81.3721-11.2793Q93.1152-7.03125 107.812-7.03125Q113.281-7.03125 118.433-7.78809Q123.584-8.54492 127.637-9.91211Q122.412-0.244141 114.307 6.81152Q106.201 13.8672 96.0938 17.6758Q85.9863 21.4844 74.9023 21.4844Q61.9629 21.4844 51.0742 17.0166Q40.1855 12.5488 32.1289 4.49219Q24.0723-3.56445 19.6289-14.4775Q15.1855-25.3906 15.1855-38.3301Z"/>
  </g>
  <g id="Ultralight-L" transform="matrix(1 0 0 1 488.495 1556)">
   <path d="M107.471-10.3027Q88.7695-10.3027 75.1709-17.3828Q61.5723-24.4629 54.248-37.6221Q46.9238-50.7812 46.9238-68.8965Q46.9238-75.9766 47.9492-81.8115Q48.9746-87.6465 51.123-92.627Q51.3184-93.2617 51.4404-93.6768Q51.5625-94.0918 51.5625-94.3359Q51.5625-94.9707 51.1963-95.3369Q50.8301-95.7031 50.2441-95.7031Q49.8535-95.7031 49.3896-95.5811Q48.9258-95.459 48.4375-95.3613Q40.2344-92.1875 33.4473-86.4502Q26.6602-80.7129 21.6797-73.0957Q16.6992-65.4785 13.9893-56.6406Q11.2793-47.8027 11.2793-38.3789Q11.2793-24.707 15.9668-13.1836Q20.6543-1.66016 29.126 6.83594Q37.5977 15.332 49.1211 20.0439Q60.6445 24.7559 74.3164 24.7559Q83.4473 24.7559 92.0898 22.168Q100.732 19.5801 108.228 14.8682Q115.723 10.1562 121.533 3.66211Q127.344-2.83203 130.908-10.7422Q131.006-11.1328 131.079-11.4258Q131.152-11.7188 131.152-12.0117Q131.152-12.7441 130.762-13.1836Q130.371-13.623 129.59-13.623Q129.346-13.623 129.028-13.5498Q128.711-13.4766 128.418-13.3301Q126.66-12.5 123.145-11.8164Q119.629-11.1328 115.454-10.7178Q111.279-10.3027 107.471-10.3027ZM13.8672-38.3789Q13.8672-47.2168 16.333-55.5664Q18.7988-63.916 23.3887-71.1426Q27.9785-78.3691 34.3262-84.0332Q40.6738-89.6973 48.3887-93.0664Q46.5332-87.8906 45.4102-81.4697Q44.2871-75.0488 44.2871-68.9941Q44.2871-54.7363 48.6572-43.4082Q53.0273-32.0801 61.2793-24.0967Q69.5312-16.1133 81.25-11.8896Q92.9688-7.66602 107.617-7.66602Q113.184-7.66602 118.555-8.42285Q123.926-9.17969 127.979-10.5469Q122.705-0.488281 114.429 6.86035Q106.152 14.209 95.874 18.1885Q85.5957 22.168 74.2676 22.168Q61.1816 22.168 50.1709 17.627Q39.1602 13.0859 31.0059 4.95605Q22.8516-3.17383 18.3594-14.2334Q13.8672-25.293 13.8672-38.3789Z"/>
  </g>
  <g id="Black-M" transform="matrix(1 0 0 1 2873.93 1126)">
   <path d="M84.3262-24.9512Q73.584-24.9512 65.7471-29.0039Q57.9102-33.0566 53.6377-40.6006Q49.3652-48.1445 49.3652-58.5449Q49.3652-62.8418 50.0488-66.7725Q50.7324-70.7031 52.0508-73.1445Q53.0273-74.8535 53.5156-76.4893Q54.0039-78.125 54.0039-79.5898Q54.0039-82.666 52.0752-84.668Q50.1465-86.6699 46.7773-86.6699Q45.6055-86.6699 44.2139-86.3525Q42.8223-86.0352 41.2109-85.4004Q31.4453-81.4453 24.1455-74.0723Q16.8457-66.6992 12.793-57.1533Q8.74023-47.6074 8.74023-37.0117Q8.74023-25.7324 12.6221-16.1865Q16.5039-6.64062 23.5352 0.390625Q30.5664 7.42188 40.0635 11.3037Q49.5605 15.1855 60.8887 15.1855Q71.2891 15.1855 80.6152 11.377Q89.9414 7.56836 97.2168 0.585938Q104.492-6.39648 108.643-15.8691Q109.473-17.6758 109.839-19.2871Q110.205-20.8984 110.205-22.2168Q110.205-25.3906 108.398-27.2217Q106.592-29.0527 103.613-29.0527Q102.1-29.0527 100.391-28.5889Q98.6816-28.125 96.7773-27.0996Q95.3613-26.416 93.3594-25.9277Q91.3574-25.4395 89.0381-25.1953Q86.7188-24.9512 84.3262-24.9512ZM25.9766-37.0605Q25.9766-41.0645 26.9287-45.166Q27.8809-49.2676 29.7119-53.1006Q31.543-56.9336 34.2285-60.0098Q34.082-58.8867 34.0088-57.7881Q33.9355-56.6895 33.9355-55.5176Q33.9355-41.5039 39.5996-31.2256Q45.2637-20.9473 55.7373-15.332Q66.2109-9.7168 80.6152-9.7168Q81.1035-9.7168 81.6162-9.76562Q82.1289-9.81445 82.5684-9.91211Q79.6875-7.32422 76.1719-5.59082Q72.6562-3.85742 68.75-3.00293Q64.8438-2.14844 60.8887-2.14844Q53.3691-2.14844 46.9971-4.73633Q40.625-7.32422 35.9131-12.0361Q31.2012-16.748 28.5889-23.1201Q25.9766-29.4922 25.9766-37.0605Z"/>
  </g>
  <g id="Heavy-M" transform="matrix(1 0 0 1 2577.61 1126)">
   <path d="M84.5703-23.3887Q73.1934-23.3887 64.917-27.71Q56.6406-32.0312 52.124-40.0146Q47.6074-47.998 47.6074-59.0332Q47.6074-63.623 48.3154-67.7246Q49.0234-71.8262 50.3418-74.3164Q51.2207-75.8789 51.6357-77.2705Q52.0508-78.6621 52.0508-79.9805Q52.0508-82.6172 50.3418-84.4238Q48.6328-86.2305 45.7031-86.2305Q44.7266-86.2305 43.5059-85.9375Q42.2852-85.6445 40.8203-85.0586Q31.2012-81.2012 23.999-73.877Q16.7969-66.5527 12.7686-57.0557Q8.74023-47.5586 8.74023-37.0605Q8.74023-25.7812 12.5977-16.2842Q16.4551-6.78711 23.4619 0.195312Q30.4688 7.17773 39.917 11.0596Q49.3652 14.9414 60.6445 14.9414Q71.0938 14.9414 80.3711 11.1816Q89.6484 7.42188 96.8262 0.537109Q104.004-6.34766 108.105-15.7227Q108.838-17.334 109.131-18.75Q109.424-20.166 109.424-21.2891Q109.424-24.0723 107.812-25.6836Q106.201-27.2949 103.662-27.2949Q102.344-27.2949 100.928-26.9043Q99.5117-26.5137 97.8027-25.6836Q96.2891-24.9512 94.1406-24.4385Q91.9922-23.9258 89.5508-23.6572Q87.1094-23.3887 84.5703-23.3887ZM23.7305-37.1582Q23.7305-41.9922 25.0488-46.8262Q26.3672-51.6602 28.8574-55.9814Q31.3477-60.3027 34.8633-63.5742Q34.4727-61.9141 34.2773-60.1807Q34.082-58.4473 34.082-56.543Q34.082-42.2852 39.8193-31.8359Q45.5566-21.3867 56.1768-15.7471Q66.7969-10.1074 81.4941-10.1074Q82.7637-10.1074 83.9111-10.2539Q85.0586-10.4004 86.1328-10.6934Q83.0566-7.27539 79.0039-4.90723Q74.9512-2.53906 70.2881-1.31836Q65.625-0.0976562 60.7422-0.0976562Q52.7344-0.0976562 45.9717-2.85645Q39.209-5.61523 34.2285-10.5957Q29.248-15.5762 26.4893-22.3389Q23.7305-29.1016 23.7305-37.1582Z"/>
  </g>
  <g id="Bold-M" transform="matrix(1 0 0 1 2281.31 1126)">
   <path d="M84.9121-21.6797Q72.8027-21.6797 63.9893-26.2695Q55.1758-30.8594 50.3906-39.3799Q45.6055-47.9004 45.6055-59.6191Q45.6055-64.5508 46.3623-68.8232Q47.1191-73.0957 48.4863-75.6348Q49.2188-77.0508 49.5605-78.1738Q49.9023-79.2969 49.9023-80.4199Q49.9023-82.5684 48.4375-84.1309Q46.9727-85.6934 44.4824-85.6934Q43.75-85.6934 42.7246-85.4736Q41.6992-85.2539 40.3809-84.7168Q30.957-80.9082 23.8525-73.6572Q16.748-66.4062 12.7441-56.958Q8.74023-47.5098 8.74023-37.1094Q8.74023-25.8789 12.5732-16.4307Q16.4062-6.98242 23.3643-0.0244141Q30.3223 6.93359 39.7461 10.791Q49.1699 14.6484 60.4004 14.6484Q70.8984 14.6484 80.1025 10.9619Q89.3066 7.27539 96.3623 0.488281Q103.418-6.29883 107.471-15.625Q108.105-16.9922 108.35-18.1885Q108.594-19.3848 108.594-20.2148Q108.594-22.5586 107.178-23.9502Q105.762-25.3418 103.711-25.3418Q102.637-25.3418 101.514-25.0488Q100.391-24.7559 99.0234-24.1211Q97.3145-23.3398 95.0195-22.8027Q92.7246-22.2656 90.1367-21.9727Q87.5488-21.6797 84.9121-21.6797ZM21.1914-37.3047Q21.1914-43.0664 22.9248-48.6816Q24.6582-54.2969 27.8809-59.1797Q31.1035-64.0625 35.5957-67.5781Q34.9609-65.332 34.6191-62.8906Q34.2773-60.4492 34.2773-57.7637Q34.2773-43.1152 40.0635-32.5195Q45.8496-21.9238 56.665-16.2109Q67.4805-10.498 82.4707-10.498Q84.6191-10.498 86.499-10.7666Q88.3789-11.0352 90.1367-11.6211Q86.8164-7.27539 82.1777-4.1748Q77.5391-1.07422 71.9971 0.537109Q66.4551 2.14844 60.5469 2.14844Q52.0508 2.14844 44.873-0.78125Q37.6953-3.71094 32.373-9.00879Q27.0508-14.3066 24.1211-21.5088Q21.1914-28.7109 21.1914-37.3047Z"/>
  </g>
  <g id="Semibold-M" transform="matrix(1 0 0 1 1984.89 1126)">
   <path d="M85.1074-20.5078Q72.5098-20.5078 63.3545-25.293Q54.1992-30.0781 49.2188-38.916Q44.2383-47.7539 44.2383-59.9609Q44.2383-65.1367 45.0195-69.5557Q45.8008-73.9746 47.168-76.5625Q47.8516-77.832 48.1201-78.7842Q48.3887-79.7363 48.3887-80.7129Q48.3887-82.5195 47.0947-83.9355Q45.8008-85.3516 43.6523-85.3516Q43.0664-85.3516 42.1631-85.1562Q41.2598-84.9609 40.0391-84.4727Q30.7617-80.7129 23.7305-73.5107Q16.6992-66.3086 12.7197-56.8848Q8.74023-47.4609 8.74023-37.1094Q8.74023-25.9277 12.5488-16.5283Q16.3574-7.12891 23.291-0.195312Q30.2246 6.73828 39.624 10.5713Q49.0234 14.4043 60.2051 14.4043Q70.752 14.4043 79.9072 10.791Q89.0625 7.17773 96.0449 0.463867Q103.027-6.25 107.031-15.4785Q107.617-16.748 107.812-17.7734Q108.008-18.7988 108.008-19.4824Q108.008-21.5332 106.714-22.7539Q105.42-23.9746 103.711-23.9746Q102.832-23.9746 101.929-23.7549Q101.025-23.5352 99.8047-22.998Q97.998-22.2168 95.6055-21.6553Q93.2129-21.0938 90.5273-20.8008Q87.8418-20.5078 85.1074-20.5078ZM19.4336-37.3535Q19.4336-43.7988 21.46-49.9512Q23.4863-56.1035 27.2217-61.3525Q30.957-66.6016 36.084-70.3125Q35.2539-67.627 34.8145-64.6973Q34.375-61.7676 34.375-58.5449Q34.375-43.7012 40.21-32.9834Q46.0449-22.2656 56.9824-16.5283Q67.9199-10.791 83.1543-10.791Q85.8887-10.791 88.2812-11.1084Q90.6738-11.4258 92.8711-12.207Q89.4043-7.22656 84.3506-3.6377Q79.2969-0.0488281 73.1689 1.83105Q67.041 3.71094 60.4004 3.71094Q51.5625 3.71094 44.0674 0.683594Q36.5723-2.34375 31.0547-7.88574Q25.5371-13.4277 22.4854-20.9229Q19.4336-28.418 19.4336-37.3535Z"/>
  </g>
  <g id="Medium-M" transform="matrix(1 0 0 1 1688.4 1126)">
   <path d="M85.2539-19.5801Q72.3145-19.5801 62.8662-24.5117Q53.418-29.4434 48.3154-38.5742Q43.2129-47.7051 43.2129-60.2539Q43.2129-65.625 44.0186-70.1172Q44.8242-74.6094 46.1426-77.2461Q46.7773-78.418 46.9971-79.2236Q47.2168-80.0293 47.2168-80.9082Q47.2168-82.4707 46.0693-83.7646Q44.9219-85.0586 43.0176-85.0586Q42.5781-85.0586 41.748-84.9121Q40.918-84.7656 39.7949-84.2773Q30.6641-80.5664 23.6572-73.3887Q16.6504-66.2109 12.6953-56.8359Q8.74023-47.4609 8.74023-37.1094Q8.74023-25.9766 12.5488-16.5771Q16.3574-7.17773 23.2666-0.268555Q30.1758 6.64062 39.5508 10.4492Q48.9258 14.2578 60.1074 14.2578Q70.6543 14.2578 79.7852 10.6689Q88.916 7.08008 95.8252 0.415039Q102.734-6.25 106.738-15.4297Q107.227-16.5527 107.397-17.4561Q107.568-18.3594 107.568-18.9453Q107.568-20.752 106.372-21.8506Q105.176-22.9492 103.711-22.9492Q102.979-22.9492 102.222-22.7783Q101.465-22.6074 100.439-22.168Q98.5352-21.3867 96.0693-20.8008Q93.6035-20.2148 90.8447-19.8975Q88.0859-19.5801 85.2539-19.5801ZM18.1152-37.4023Q18.1152-44.3359 20.3613-50.9277Q22.6074-57.5195 26.709-63.0615Q30.8105-68.6035 36.4746-72.3633Q35.498-69.4336 34.9854-66.1133Q34.4727-62.793 34.4727-59.1797Q34.4727-44.1406 40.3564-33.3496Q46.2402-22.5586 57.2754-16.7725Q68.3105-10.9863 83.6426-10.9863Q86.8164-10.9863 89.5996-11.377Q92.3828-11.7676 94.9219-12.6953Q91.3574-7.22656 85.9863-3.27148Q80.6152 0.683594 74.0479 2.7832Q67.4805 4.88281 60.3516 4.88281Q51.2207 4.88281 43.5059 1.75781Q35.791-1.36719 30.1025-7.05566Q24.4141-12.7441 21.2646-20.4834Q18.1152-28.2227 18.1152-37.4023Z"/>
  </g>
  <g id="Regular-M" transform="matrix(1 0 0 1 1391.98 1126)">
   <path d="M85.4492-18.4082Q72.0215-18.4082 62.2314-23.5352Q52.4414-28.6621 47.1436-38.1348Q41.8457-47.6074 41.8457-60.6445Q41.8457-66.2109 42.6758-70.8496Q43.5059-75.4883 44.873-78.125Q45.4102-79.1992 45.5811-79.834Q45.752-80.4688 45.752-81.2012Q45.752-82.4219 44.751-83.5693Q43.75-84.7168 42.1875-84.7168Q41.8945-84.7168 41.2109-84.5947Q40.5273-84.4727 39.502-84.0332Q30.4688-80.3711 23.5352-73.2422Q16.6016-66.1133 12.6709-56.7627Q8.74023-47.4121 8.74023-37.1582Q8.74023-26.0254 12.5244-16.6748Q16.3086-7.32422 23.1934-0.439453Q30.0781 6.44531 39.4287 10.2539Q48.7793 14.0625 59.9121 14.0625Q70.5078 14.0625 79.5898 10.5225Q88.6719 6.98242 95.5078 0.390625Q102.344-6.20117 106.299-15.332Q106.738-16.3086 106.86-17.0654Q106.982-17.8223 106.982-18.2129Q106.982-19.7266 105.933-20.6543Q104.883-21.582 103.76-21.582Q103.174-21.582 102.637-21.4844Q102.1-21.3867 101.221-21.0938Q99.2188-20.2637 96.6553-19.6777Q94.0918-19.0918 91.2354-18.75Q88.3789-18.4082 85.4492-18.4082ZM16.4062-37.5Q16.4062-45.0684 18.9209-52.1973Q21.4355-59.3262 26.0498-65.2344Q30.6641-71.1426 36.9629-75.0977Q35.791-71.7285 35.1807-67.9443Q34.5703-64.1602 34.5703-59.9609Q34.5703-44.7266 40.5029-33.8135Q46.4355-22.9004 57.5928-17.0898Q68.75-11.2793 84.3262-11.2793Q88.0859-11.2793 91.3574-11.7432Q94.6289-12.207 97.6562-13.2812Q93.9453-7.17773 88.1592-2.73438Q82.373 1.70898 75.2197 4.07715Q68.0664 6.44531 60.2051 6.44531Q50.7324 6.44531 42.7246 3.19824Q34.7168-0.0488281 28.8086-5.95703Q22.9004-11.8652 19.6533-19.8975Q16.4062-27.9297 16.4062-37.5Z"/>
  </g>
  <g id="Light-M" transform="matrix(1 0 0 1 1096.1 1126)">
   <path d="M84.7656-17.627Q71.0449-17.627 61.0107-22.876Q50.9766-28.125 45.5566-37.8174Q40.1367-47.5098 40.1367-60.8398Q40.1367-66.4062 40.9668-70.9961Q41.7969-75.5859 43.2617-78.6133Q43.6523-79.541 43.7988-80.0537Q43.9453-80.5664 43.9453-81.1523Q43.9453-82.1289 43.1641-83.0078Q42.3828-83.8867 41.1621-83.8867Q40.918-83.8867 40.3076-83.7891Q39.6973-83.6914 38.916-83.3496Q30.0293-79.834 23.2422-72.8271Q16.4551-65.8203 12.5977-56.6162Q8.74023-47.4121 8.74023-37.3047Q8.74023-26.3672 12.4756-17.1387Q16.2109-7.91016 22.998-1.12305Q29.7852 5.66406 39.0137 9.42383Q48.2422 13.1836 59.1797 13.1836Q69.4336 13.1836 78.3936 9.66797Q87.3535 6.15234 94.1406-0.317383Q100.928-6.78711 104.785-15.625Q105.127-16.4062 105.225-16.9922Q105.322-17.5781 105.322-17.9199Q105.322-19.1406 104.517-19.873Q103.711-20.6055 102.734-20.6055Q102.246-20.6055 101.807-20.5322Q101.367-20.459 100.684-20.2148Q98.877-19.4336 96.2646-18.8721Q93.6523-18.3105 90.6738-17.9688Q87.6953-17.627 84.7656-17.627ZM14.6484-37.5488Q14.6484-45.6055 17.4316-53.125Q20.2148-60.6445 25.2686-66.7236Q30.3223-72.8027 37.1094-76.6602Q35.8887-73.0469 35.1807-68.8965Q34.4727-64.7461 34.4727-60.4004Q34.4727-45.3125 40.4297-34.4971Q46.3867-23.6816 57.4951-17.8711Q68.6035-12.0605 84.0332-12.0605Q87.9883-12.0605 91.5283-12.5732Q95.0684-13.0859 98.1445-14.1602Q94.2871-7.51953 88.3057-2.68555Q82.3242 2.14844 74.9268 4.73633Q67.5293 7.32422 59.375 7.32422Q49.707 7.32422 41.5283 4.00391Q33.3496 0.683594 27.3193-5.37109Q21.2891-11.4258 17.9688-19.6289Q14.6484-27.832 14.6484-37.5488Z"/>
  </g>
  <g id="Thin-M" transform="matrix(1 0 0 1 800.465 1126)">
   <path d="M83.8867-16.6016Q69.6777-16.6016 59.375-21.9971Q49.0723-27.3926 43.4814-37.3779Q37.8906-47.3633 37.8906-61.1328Q37.8906-66.6504 38.7207-71.2158Q39.5508-75.7812 41.1133-79.2969Q41.3574-79.9316 41.4551-80.3467Q41.5527-80.7617 41.5527-81.1035Q41.5527-81.7871 41.0889-82.2998Q40.625-82.8125 39.8438-82.8125Q39.5508-82.8125 39.0869-82.7393Q38.623-82.666 38.0859-82.4219Q29.4922-79.0527 22.876-72.2412Q16.2598-65.4297 12.5-56.3965Q8.74023-47.3633 8.74023-37.5488Q8.74023-26.8066 12.4268-17.749Q16.1133-8.69141 22.7539-2.02637Q29.3945 4.63867 38.4521 8.3252Q47.5098 12.0117 58.2031 12.0117Q68.0176 12.0117 76.8066 8.52051Q85.5957 5.0293 92.334-1.26953Q99.0723-7.56836 102.783-16.0156Q103.027-16.5039 103.101-16.8701Q103.174-17.2363 103.174-17.5293Q103.174-18.3594 102.661-18.8477Q102.148-19.3359 101.367-19.3359Q101.074-19.3359 100.732-19.2627Q100.391-19.1895 100-19.043Q98.4375-18.3594 95.7764-17.8223Q93.1152-17.2852 89.9658-16.9434Q86.8164-16.6016 83.8867-16.6016ZM12.3047-37.5977Q12.3047-46.2891 15.4541-54.3213Q18.6035-62.3535 24.2188-68.6768Q29.834-75 37.3535-78.6621Q35.9863-74.8047 35.1807-70.1904Q34.375-65.5762 34.375-60.9863Q34.375-46.1426 40.332-35.4248Q46.2891-24.707 57.3486-18.9209Q68.4082-13.1348 83.6426-13.1348Q87.793-13.1348 91.7236-13.6963Q95.6543-14.2578 98.7305-15.332Q94.7754-8.00781 88.5498-2.66113Q82.3242 2.68555 74.5605 5.56641Q66.7969 8.44727 58.3008 8.44727Q48.3398 8.44727 39.9414 5.0293Q31.543 1.61133 25.3662-4.58984Q19.1895-10.791 15.7471-19.2139Q12.3047-27.6367 12.3047-37.5977Z"/>
  </g>
  <g id="Ultralight-M" transform="matrix(1 0 0 1 504.316 1126)">
   <path d="M83.3984-16.1133Q69.043-16.1133 58.5693-21.582Q48.0957-27.0508 42.4316-37.1582Q36.7676-47.2656 36.7676-61.2793Q36.7676-66.748 37.5732-71.2891Q38.3789-75.8301 39.9902-79.6387Q40.1855-80.1758 40.2588-80.4932Q40.332-80.8105 40.332-81.0547Q40.332-81.5918 40.0146-81.9336Q39.6973-82.2754 39.1602-82.2754Q38.916-82.2754 38.501-82.2021Q38.0859-82.1289 37.6953-81.9336Q29.1992-78.7109 22.6807-71.9482Q16.1621-65.1855 12.4512-56.2744Q8.74023-47.3633 8.74023-37.6465Q8.74023-27.002 12.3779-18.042Q16.0156-9.08203 22.6074-2.46582Q29.1992 4.15039 38.1836 7.78809Q47.168 11.4258 57.7148 11.4258Q67.2852 11.4258 75.9766 7.95898Q84.668 4.49219 91.4062-1.7334Q98.1445-7.95898 101.758-16.2109Q101.904-16.5527 101.978-16.7969Q102.051-17.041 102.051-17.2852Q102.051-17.9688 101.685-18.3105Q101.318-18.6523 100.684-18.6523Q100.439-18.6523 100.171-18.6035Q99.9023-18.5547 99.6094-18.457Q98.2422-17.8223 95.5322-17.2852Q92.8223-16.748 89.5996-16.4307Q86.377-16.1133 83.3984-16.1133ZM11.1328-37.6465Q11.1328-46.6797 14.4531-54.9561Q17.7734-63.2324 23.7061-69.6777Q29.6387-76.123 37.4512-79.7363Q36.0352-75.7324 35.1807-70.8496Q34.3262-65.9668 34.3262-61.2793Q34.3262-46.5332 40.2832-35.8643Q46.2402-25.1953 57.2754-19.4336Q68.3105-13.6719 83.4473-13.6719Q87.7441-13.6719 91.8457-14.2578Q95.9473-14.8438 99.0723-15.918Q95.0195-8.20312 88.6475-2.6123Q82.2754 2.97852 74.3652 6.00586Q66.4551 9.0332 57.7637 9.0332Q47.6562 9.0332 39.1357 5.56641Q30.6152 2.09961 24.3408-4.19922Q18.0664-10.498 14.5996-19.043Q11.1328-27.5879 11.1328-37.6465Z"/>
  </g>
  <g id="Black-S" transform="matrix(1 0 0 1 2886.74 696)">
   <path d="M65.918-27.5879Q57.7148-27.5879 51.6846-30.6885Q45.6543-33.7891 42.3828-39.5752Q39.1113-45.3613 39.1113-53.3691Q39.1113-56.6406 39.624-59.668Q40.1367-62.6953 41.2109-64.5996Q41.9922-66.0156 42.3828-67.334Q42.7734-68.6523 42.7734-69.873Q42.7734-72.4121 41.2109-74.0234Q39.6484-75.6348 36.9141-75.6348Q35.9375-75.6348 34.79-75.3906Q33.6426-75.1465 32.373-74.6094Q24.6582-71.4844 18.9209-65.6982Q13.1836-59.9121 10.0098-52.417Q6.83594-44.9219 6.83594-36.6211Q6.83594-27.7832 9.8877-20.3125Q12.9395-12.8418 18.4326-7.32422Q23.9258-1.80664 31.3965 1.24512Q38.8672 4.29688 47.7051 4.29688Q55.8594 4.29688 63.1836 1.29395Q70.5078-1.70898 76.2207-7.20215Q81.9336-12.6953 85.2051-20.1172Q85.8887-21.582 86.1816-22.9004Q86.4746-24.2188 86.4746-25.293Q86.4746-27.8809 85.0098-29.3701Q83.5449-30.8594 81.1035-30.8594Q79.8828-30.8594 78.4424-30.4688Q77.002-30.0781 75.4395-29.248Q73.9258-28.4668 71.2891-28.0273Q68.6523-27.5879 65.918-27.5879ZM20.9473-36.6211Q20.9473-39.5508 21.582-42.5781Q22.2168-45.6055 23.4863-48.4619Q24.7559-51.3184 26.6113-53.6621Q26.5625-52.9297 26.5381-52.2217Q26.5137-51.5137 26.5137-50.8301Q26.5137-39.9414 30.957-31.9336Q35.4004-23.9258 43.5547-19.5557Q51.709-15.1855 62.8418-15.1855Q63.0371-15.1855 63.2324-15.1855Q63.4277-15.1855 63.623-15.1855Q61.4258-13.4277 58.8135-12.2314Q56.2012-11.0352 53.3691-10.4492Q50.5371-9.86328 47.7051-9.86328Q41.9434-9.86328 37.0605-11.8652Q32.1777-13.8672 28.5645-17.4805Q24.9512-21.0938 22.9492-25.9766Q20.9473-30.8594 20.9473-36.6211Z"/>
  </g>
  <g id="Heavy-S" transform="matrix(1 0 0 1 2590.25 696)">
   <path d="M66.2598-26.3672Q57.5195-26.3672 51.123-29.6631Q44.7266-32.959 41.2598-39.1113Q37.793-45.2637 37.793-53.7598Q37.793-57.2754 38.3545-60.4492Q38.916-63.623 39.9902-65.5273Q40.6738-66.8457 40.9912-67.9688Q41.3086-69.0918 41.3086-70.2148Q41.3086-72.4121 39.917-73.877Q38.5254-75.3418 36.1328-75.3418Q35.3027-75.3418 34.3018-75.1221Q33.3008-74.9023 32.0801-74.4141Q24.5117-71.3379 18.8477-65.5762Q13.1836-59.8145 10.0098-52.3438Q6.83594-44.873 6.83594-36.6211Q6.83594-27.7832 9.8877-20.3369Q12.9395-12.8906 18.4082-7.39746Q23.877-1.9043 31.3232 1.14746Q38.7695 4.19922 47.6074 4.19922Q55.8594 4.19922 63.1348 1.24512Q70.4102-1.70898 76.0498-7.15332Q81.6895-12.5977 84.9121-19.9707Q85.5469-21.2891 85.791-22.4609Q86.0352-23.6328 86.0352-24.5117Q86.0352-26.8066 84.6924-28.1494Q83.3496-29.4922 81.25-29.4922Q80.2246-29.4922 79.0039-29.1748Q77.7832-28.8574 76.416-28.125Q74.6582-27.2949 71.8994-26.8311Q69.1406-26.3672 66.2598-26.3672ZM19.2383-36.7188Q19.2383-40.2832 20.1416-43.8721Q21.0449-47.4609 22.8271-50.708Q24.6094-53.9551 27.1484-56.4941Q26.9043-55.3711 26.7822-54.1504Q26.6602-52.9297 26.6602-51.6602Q26.6602-40.5273 31.1523-32.373Q35.6445-24.2188 43.9453-19.7998Q52.2461-15.3809 63.623-15.3809Q64.4531-15.3809 65.1855-15.4785Q65.918-15.5762 66.6016-15.7715Q64.2578-13.3301 61.2061-11.6455Q58.1543-9.96094 54.7119-9.10645Q51.2695-8.25195 47.6562-8.25195Q41.5527-8.25195 36.3525-10.376Q31.1523-12.5 27.3193-16.333Q23.4863-20.166 21.3623-25.3662Q19.2383-30.5664 19.2383-36.7188Z"/>
  </g>
  <g id="Bold-S" transform="matrix(1 0 0 1 2293.79 696)">
   <path d="M66.6016-25.0488Q57.3242-25.0488 50.5127-28.5645Q43.7012-32.0801 40.0391-38.6475Q36.377-45.2148 36.377-54.248Q36.377-58.0566 36.9629-61.377Q37.5488-64.6973 38.5742-66.6016Q39.209-67.7734 39.4775-68.7012Q39.7461-69.6289 39.7461-70.6055Q39.7461-72.3633 38.5254-73.6816Q37.3047-75 35.2539-75Q34.6191-75 33.7646-74.8291Q32.9102-74.6582 31.7871-74.2188Q24.3652-71.1914 18.75-65.4785Q13.1348-59.7656 9.98535-52.3193Q6.83594-44.873 6.83594-36.6699Q6.83594-27.832 9.86328-20.4102Q12.8906-12.9883 18.3594-7.49512Q23.8281-2.00195 31.25 1.02539Q38.6719 4.05273 47.5098 4.05273Q55.8105 4.05273 63.0615 1.14746Q70.3125-1.75781 75.8545-7.10449Q81.3965-12.4512 84.6191-19.8242Q85.1562-20.9961 85.3516-21.9727Q85.5469-22.9492 85.5469-23.6816Q85.5469-25.6348 84.3506-26.7822Q83.1543-27.9297 81.4453-27.9297Q80.5664-27.9297 79.6143-27.71Q78.6621-27.4902 77.4902-26.9043Q75.4883-26.0254 72.583-25.5371Q69.6777-25.0488 66.6016-25.0488ZM17.334-36.8164Q17.334-41.1133 18.5547-45.3369Q19.7754-49.5605 22.1191-53.2471Q24.4629-56.9336 27.7832-59.7168Q27.2949-58.0566 27.0508-56.2988Q26.8066-54.541 26.8066-52.6367Q26.8066-41.1621 31.3721-32.8613Q35.9375-24.5605 44.3848-20.1172Q52.832-15.6738 64.5508-15.6738Q66.0645-15.6738 67.3584-15.8447Q68.6523-16.0156 69.9707-16.4062Q67.4316-13.2812 63.916-11.0352Q60.4004-8.78906 56.2256-7.61719Q52.0508-6.44531 47.6562-6.44531Q41.1133-6.44531 35.5713-8.69141Q30.0293-10.9375 25.9277-15.0391Q21.8262-19.1406 19.5801-24.6826Q17.334-30.2246 17.334-36.8164Z"/>
  </g>
  <g id="Semibold-S" transform="matrix(1 0 0 1 1997.25 696)">
   <path d="M66.8457-24.0723Q57.1289-24.0723 50.0488-27.7588Q42.9688-31.4453 39.1602-38.2812Q35.3516-45.1172 35.3516-54.541Q35.3516-58.5449 35.9619-61.9873Q36.5723-65.4297 37.5977-67.334Q38.1836-68.4082 38.4033-69.1895Q38.623-69.9707 38.623-70.8496Q38.623-72.3633 37.5244-73.5596Q36.4258-74.7559 34.6191-74.7559Q34.1309-74.7559 33.374-74.6094Q32.6172-74.4629 31.5918-74.0723Q24.2676-71.0938 18.7012-65.3809Q13.1348-59.668 9.98535-52.2461Q6.83594-44.8242 6.83594-36.6699Q6.83594-27.832 9.86328-20.4102Q12.8906-12.9883 18.335-7.51953Q23.7793-2.05078 31.2012 0.952148Q38.623 3.95508 47.4121 3.95508Q55.8105 3.95508 63.0127 1.09863Q70.2148-1.75781 75.708-7.05566Q81.2012-12.3535 84.375-19.6777Q84.8633-20.752 85.0342-21.6309Q85.2051-22.5098 85.2051-23.0469Q85.2051-24.8047 84.082-25.8301Q82.959-26.8555 81.5918-26.8555Q80.8105-26.8555 80.0293-26.6846Q79.248-26.5137 78.2227-26.0742Q76.0742-25.1465 73.0713-24.6094Q70.0684-24.0723 66.8457-24.0723ZM15.9668-36.8652Q15.9668-41.6992 17.4316-46.3379Q18.8965-50.9766 21.6309-54.9805Q24.3652-58.9844 28.1738-61.8652Q27.5391-59.9121 27.2217-57.7881Q26.9043-55.6641 26.9043-53.2715Q26.9043-41.5527 31.4941-33.1787Q36.084-24.8047 44.6533-20.3125Q53.2227-15.8203 65.1367-15.8203Q67.1387-15.8203 68.8477-16.0645Q70.5566-16.3086 72.2656-16.8457Q69.5801-13.1836 65.7471-10.5713Q61.9141-7.95898 57.251-6.56738Q52.5879-5.17578 47.6074-5.17578Q40.7715-5.17578 34.9854-7.51953Q29.1992-9.86328 24.9512-14.1357Q20.7031-18.4082 18.335-24.1943Q15.9668-29.9805 15.9668-36.8652Z"/>
  </g>
  <g id="Medium-S" transform="matrix(1 0 0 1 1700.66 696)">
   <path d="M67.041-23.3887Q57.0312-23.3887 49.7314-27.1973Q42.4316-31.0059 38.501-38.0371Q34.5703-45.0684 34.5703-54.7852Q34.5703-58.9355 35.2051-62.4512Q35.8398-65.9668 36.8652-67.8711Q37.4512-68.8965 37.5977-69.5801Q37.7441-70.2637 37.7441-71.0449Q37.7441-72.3145 36.7432-73.4619Q35.7422-74.6094 34.1309-74.6094Q33.7891-74.6094 33.1055-74.4873Q32.4219-74.3652 31.3965-73.9746Q24.1699-70.9961 18.6279-65.3076Q13.0859-59.6191 9.96094-52.2217Q6.83594-44.8242 6.83594-36.6699Q6.83594-27.8809 9.83887-20.459Q12.8418-13.0371 18.2861-7.59277Q23.7305-2.14844 31.1279 0.878906Q38.5254 3.90625 47.3633 3.90625Q55.7617 3.90625 62.9639 1.07422Q70.166-1.75781 75.6104-7.03125Q81.0547-12.3047 84.1797-19.5801Q84.668-20.5566 84.8145-21.3379Q84.9609-22.1191 84.9609-22.6074Q84.9609-24.2188 83.9111-25.1465Q82.8613-26.0742 81.6406-26.0742Q81.0059-26.0742 80.3711-25.9277Q79.7363-25.7812 78.8086-25.3906Q76.4648-24.4629 73.3887-23.9258Q70.3125-23.3887 67.041-23.3887ZM14.9902-36.9141Q14.9902-42.0898 16.6016-47.0703Q18.2129-52.0508 21.2402-56.2988Q24.2676-60.5469 28.5156-63.5742Q27.7344-61.3281 27.3682-58.9111Q27.002-56.4941 27.002-53.7598Q27.002-41.8945 31.6162-33.4229Q36.2305-24.9512 44.8975-20.459Q53.5645-15.9668 65.625-15.9668Q67.9688-15.9668 69.9707-16.2354Q71.9727-16.5039 73.9746-17.1875Q71.2402-13.1348 67.1387-10.2295Q63.0371-7.32422 58.0322-5.76172Q53.0273-4.19922 47.6074-4.19922Q40.5273-4.19922 34.5703-6.64062Q28.6133-9.08203 24.2188-13.4766Q19.8242-17.8711 17.4072-23.8525Q14.9902-29.834 14.9902-36.9141Z"/>
  </g>
  <g id="Regular-S" transform="matrix(1 0 0 1 1404.12 696)">
   <path d="M67.2852-22.4609Q56.8848-22.4609 49.3164-26.416Q41.748-30.3711 37.6709-37.6953Q33.5938-45.0195 33.5938-55.0781Q33.5938-59.4238 34.2529-63.0615Q34.9121-66.6992 35.9375-68.6035Q36.4258-69.5312 36.5479-70.0684Q36.6699-70.6055 36.6699-71.2891Q36.6699-72.3145 35.791-73.3398Q34.9121-74.3652 33.5449-74.3652Q33.3008-74.3652 32.7148-74.2676Q32.1289-74.1699 31.2012-73.8281Q24.0723-70.8984 18.5791-65.2344Q13.0859-59.5703 9.96094-52.1729Q6.83594-44.7754 6.83594-36.6699Q6.83594-27.8809 9.83887-20.4834Q12.8418-13.0859 18.2617-7.6416Q23.6816-2.19727 31.0791 0.805664Q38.4766 3.80859 47.2656 3.80859Q55.7617 3.80859 62.915 1.02539Q70.0684-1.75781 75.4639-6.98242Q80.8594-12.207 83.9844-19.4824Q84.375-20.3613 84.4971-21.0205Q84.6191-21.6797 84.6191-22.0215Q84.6191-23.3887 83.667-24.1943Q82.7148-25 81.7871-25Q81.25-25 80.7861-24.9268Q80.3223-24.8535 79.541-24.5605Q77.0508-23.584 73.877-23.0225Q70.7031-22.4609 67.2852-22.4609ZM13.6719-36.9629Q13.6719-42.6758 15.5029-48.0713Q17.334-53.4668 20.752-58.0078Q24.1699-62.5488 28.9062-65.7227Q27.9785-63.1836 27.5391-60.376Q27.0996-57.5684 27.0996-54.3945Q27.0996-42.334 31.7627-33.7646Q36.4258-25.1953 45.1904-20.6543Q53.9551-16.1133 66.2109-16.1133Q69.043-16.1133 71.46-16.4551Q73.877-16.7969 76.2695-17.627Q73.3887-13.0859 68.9697-9.79004Q64.5508-6.49414 59.0576-4.73633Q53.5645-2.97852 47.5586-2.97852Q40.2344-2.97852 34.0332-5.49316Q27.832-8.00781 23.2666-12.5732Q18.7012-17.1387 16.1865-23.3643Q13.6719-29.5898 13.6719-36.9629Z"/>
  </g>
  <g id="Light-S" transform="matrix(1 0 0 1 1108.14 696)">
   <path d="M66.6992-21.7773Q56.0059-21.7773 48.2422-25.8301Q40.4785-29.8828 36.2793-37.4023Q32.0801-44.9219 32.0801-55.2246Q32.0801-59.5703 32.7393-63.1836Q33.3984-66.7969 34.5215-69.043Q34.8633-69.8242 34.9854-70.2637Q35.1074-70.7031 35.1074-71.2402Q35.1074-72.0703 34.4238-72.8516Q33.7402-73.6328 32.666-73.6328Q32.4219-73.6328 31.9092-73.5596Q31.3965-73.4863 30.6641-73.1934Q23.6816-70.4102 18.3105-64.8438Q12.9395-59.2773 9.8877-52.0264Q6.83594-44.7754 6.83594-36.8164Q6.83594-28.1738 9.79004-20.8984Q12.7441-13.623 18.0908-8.25195Q23.4375-2.88086 30.7129 0.0732422Q37.9883 3.02734 46.6309 3.02734Q54.7852 3.02734 61.8408 0.268555Q68.8965-2.49023 74.2676-7.61719Q79.6387-12.7441 82.666-19.7266Q82.959-20.4102 83.0566-20.9473Q83.1543-21.4844 83.1543-21.7773Q83.1543-22.8516 82.4219-23.5107Q81.6895-24.1699 80.8594-24.1699Q80.4688-24.1699 80.0781-24.0967Q79.6875-24.0234 79.0527-23.7793Q76.8555-22.8516 73.4863-22.3145Q70.1172-21.7773 66.6992-21.7773ZM12.1094-37.0117Q12.1094-43.1641 14.1846-48.9014Q16.2598-54.6387 20.0684-59.3262Q23.877-64.0137 29.0527-67.0898Q28.0762-64.3555 27.5635-61.2305Q27.0508-58.1055 27.0508-54.7852Q27.0508-42.8711 31.7139-34.375Q36.377-25.8789 45.0928-21.3379Q53.8086-16.7969 65.9668-16.7969Q68.9453-16.7969 71.6064-17.1875Q74.2676-17.5781 76.709-18.4082Q73.7305-13.3789 69.1162-9.74121Q64.502-6.10352 58.7891-4.1748Q53.0762-2.24609 46.8262-2.24609Q39.3066-2.24609 32.9834-4.80957Q26.6602-7.37305 21.9727-12.0605Q17.2852-16.748 14.6973-23.1201Q12.1094-29.4922 12.1094-37.0117Z"/>
  </g>
  <g id="Thin-S" transform="matrix(1 0 0 1 812.404 696)">
   <path d="M65.8691-20.8496Q54.834-20.8496 46.8262-25.0488Q38.8184-29.248 34.4727-37.0117Q30.127-44.7754 30.127-55.4688Q30.127-59.8145 30.7617-63.3789Q31.3965-66.9434 32.6172-69.6289Q32.8613-70.166 32.9346-70.5078Q33.0078-70.8496 33.0078-71.1914Q33.0078-71.7773 32.5684-72.2412Q32.1289-72.7051 31.4941-72.7051Q31.25-72.7051 30.8594-72.6318Q30.4688-72.5586 29.9805-72.3633Q23.1934-69.7266 17.9932-64.3311Q12.793-58.9355 9.81445-51.8311Q6.83594-44.7266 6.83594-36.9629Q6.83594-28.5645 9.74121-21.4111Q12.6465-14.2578 17.8711-9.00879Q23.0957-3.75977 30.2246-0.878906Q37.3535 2.00195 45.8008 2.00195Q53.5645 2.00195 60.4736-0.732422Q67.3828-3.4668 72.6807-8.42285Q77.9785-13.3789 80.9082-20.0684Q81.0547-20.5078 81.1279-20.8496Q81.2012-21.1914 81.2012-21.4355Q81.2012-22.168 80.7373-22.6074Q80.2734-23.0469 79.6875-23.0469Q79.3945-23.0469 79.126-22.9736Q78.8574-22.9004 78.4668-22.7539Q76.5625-21.9238 72.9492-21.3867Q69.3359-20.8496 65.8691-20.8496ZM10.1074-37.0605Q10.1074-43.75 12.4756-49.9512Q14.8438-56.1523 19.165-61.084Q23.4863-66.0156 29.1992-68.8965Q28.1738-65.918 27.5635-62.3779Q26.9531-58.8379 26.9531-55.3223Q26.9531-43.6035 31.6162-35.1807Q36.2793-26.7578 44.9463-22.2412Q53.6133-17.7246 65.625-17.7246Q68.7988-17.7246 71.8018-18.1641Q74.8047-18.6035 77.2461-19.4336Q74.1211-13.7695 69.3115-9.69238Q64.502-5.61523 58.4961-3.41797Q52.4902-1.2207 45.8496-1.2207Q38.1348-1.2207 31.5918-3.88184Q25.0488-6.54297 20.2148-11.377Q15.3809-16.2109 12.7441-22.7539Q10.1074-29.2969 10.1074-37.0605Z"/>
  </g>
  <g id="Ultralight-S" transform="matrix(1 0 0 1 516.181 696)">
   <path d="M65.4785-20.3613Q54.248-20.3613 46.0938-24.6338Q37.9395-28.9062 33.5205-36.792Q29.1016-44.6777 29.1016-55.5664Q29.1016-59.9121 29.7363-63.4766Q30.3711-67.041 31.6406-69.9219Q31.7871-70.3613 31.8604-70.6543Q31.9336-70.9473 31.9336-71.1426Q31.9336-71.6309 31.6406-71.9238Q31.3477-72.2168 30.8594-72.2168Q30.6152-72.2168 30.2979-72.1436Q29.9805-72.0703 29.5898-71.9727Q22.9492-69.3848 17.8223-64.0625Q12.6953-58.7402 9.76562-51.7334Q6.83594-44.7266 6.83594-37.0605Q6.83594-28.7598 9.69238-21.7041Q12.5488-14.6484 17.749-9.44824Q22.9492-4.24805 29.9805-1.36719Q37.0117 1.51367 45.3613 1.51367Q52.8809 1.51367 59.7168-1.24512Q66.5527-4.00391 71.8506-8.88672Q77.1484-13.7695 79.9805-20.2637Q80.127-20.5566 80.1758-20.8008Q80.2246-21.0449 80.2246-21.2402Q80.2246-21.7773 79.9072-22.1191Q79.5898-22.4609 79.0527-22.4609Q78.8574-22.4609 78.6377-22.4121Q78.418-22.3633 78.125-22.2656Q76.416-21.4355 72.6807-20.8984Q68.9453-20.3613 65.4785-20.3613ZM9.0332-37.1094Q9.0332-44.0918 11.5723-50.5127Q14.1113-56.9336 18.6768-61.9629Q23.2422-66.9922 29.2969-69.8242Q28.2227-66.748 27.5635-62.9639Q26.9043-59.1797 26.9043-55.5664Q26.9043-43.9453 31.5674-35.5957Q36.2305-27.2461 44.873-22.7295Q53.5156-18.2129 65.4297-18.2129Q68.7012-18.2129 71.875-18.6523Q75.0488-19.0918 77.5391-19.9219Q74.3652-14.0137 69.4092-9.69238Q64.4531-5.37109 58.3008-3.05176Q52.1484-0.732422 45.3613-0.732422Q37.5-0.732422 30.8838-3.44238Q24.2676-6.15234 19.3604-11.0596Q14.4531-15.9668 11.7432-22.6074Q9.0332-29.248 9.0332-37.1094Z"/>
  </g>
 </g>
</svg>
